<svg id="Layer_1" data-name="Layer 1" xmlns="http://www.w3.org/2000/svg" xmlns:xlink="http://www.w3.org/1999/xlink" viewBox="0 0 1024 500"><defs><style>.cls-1{fill:url(#linear-gradient);}.cls-2{fill:url(#linear-gradient-2);}.cls-3{fill:url(#linear-gradient-3);}.cls-4{fill:url(#linear-gradient-4);}</style><linearGradient id="linear-gradient" x1="40.88" y1="245.83" x2="328.69" y2="245.83" gradientUnits="userSpaceOnUse"><stop offset="0" stop-color="#e6e6e6"/><stop offset="1" stop-color="#fff"/></linearGradient><linearGradient id="linear-gradient-2" x1="535.65" y1="215.48" x2="984" y2="215.48" gradientUnits="userSpaceOnUse"><stop offset="0" stop-color="#fff"/><stop offset="1" stop-color="#e6e6e6"/></linearGradient><linearGradient id="linear-gradient-3" x1="755.22" y1="323.1" x2="983.22" y2="323.1" xlink:href="#linear-gradient"/><linearGradient id="linear-gradient-4" x1="194.76" y1="187.53" x2="422.76" y2="187.53" xlink:href="#linear-gradient"/></defs><title>clouds</title><path class="cls-1" d="M282.13,202.19a59.76,59.76,0,0,0-31.18,1.12,60.18,60.18,0,0,0-41.9-16.2A60,60,0,0,0,97.3,200.21c-27.24,5.68-49,23.92-54.9,49.32-8.53,37,20,75.16,63.72,85.24,35.72,8.24,70.53-4.82,86.73-30.06,1.18.35,2.37.67,3.59.95a59.76,59.76,0,0,0,31.18-1.12,60,60,0,1,0,54.52-102.34Z"/><path class="cls-2" d="M911.46,147.51a93.09,93.09,0,0,0-48.57,1.75A93.74,93.74,0,0,0,797.62,124a93.52,93.52,0,0,0-174.09,20.39c-42.44,8.85-76.41,37.27-85.53,76.84C524.71,278.88,569.15,338.33,637.26,354c55.65,12.83,109.87-7.51,135.1-46.82,1.84.54,3.7,1,5.59,1.48a93.09,93.09,0,0,0,48.57-1.75,93.53,93.53,0,1,0,84.93-159.43Z"/><path class="cls-3" d="M792.11,288.54a47.34,47.34,0,0,1,24.7.89A47.67,47.67,0,0,1,850,276.59,47.56,47.56,0,0,1,938.53,287c21.58,4.5,38.85,19,43.49,39.07,6.76,29.31-15.84,59.54-50.48,67.53-28.3,6.53-55.87-3.82-68.7-23.81-.93.28-1.88.53-2.84.75a47.34,47.34,0,0,1-24.7-.89,47.57,47.57,0,1,1-43.19-81.08Z"/><path class="cls-4" d="M231.65,153a47.34,47.34,0,0,1,24.7.89A47.67,47.67,0,0,1,289.55,141a47.56,47.56,0,0,1,88.53,10.37c21.58,4.5,38.85,19,43.49,39.07,6.76,29.31-15.84,59.54-50.48,67.53-28.3,6.53-55.87-3.82-68.7-23.81-.93.28-1.88.53-2.84.75a47.34,47.34,0,0,1-24.7-.89A47.57,47.57,0,1,1,231.65,153Z"/></svg>