<?xml version="1.0" encoding="utf-8"?>
<!-- Generator: Adobe Illustrator 21.0.0, SVG Export Plug-In . SVG Version: 6.00 Build 0)  -->
<svg version="1.1" baseProfile="tiny" id="Layer_1" xmlns="http://www.w3.org/2000/svg" xmlns:xlink="http://www.w3.org/1999/xlink"
	 x="0px" y="0px" viewBox="0 0 100 100" overflow="scroll" xml:space="preserve">
<g>
	<path fill="#FFFFFF" d="M86.4,90.9c-23.9,0-46.9,0-69.8,0C19.4,84,26.7,79,33.7,79c2.3,0,4.7,0,7,0c1.3,0,2.2-0.1,2.3-1.8
		c0.1-1.9-0.8-2.2-2.4-2.2c-6.3,0-12.7,0-19,0C13.7,75,11,72.4,11,64.6c0-14.5,0-29,0-43.5C11,13.7,13.7,11,21.3,11
		c19.8,0,39.6,0,59.4,0C88.3,11,91,13.7,91,21.2c0,14.5,0,29,0,43.5C91,72.4,88.3,75,80.4,75c-6.2,0-12.3,0-18.5,0
		c-1.5,0-3-0.2-2.9,2.2c0.1,2.1,1.5,1.7,2.8,1.8c0.8,0,1.7,0.2,2.5,0C74.8,76.6,80.3,83.4,86.4,90.9z M50.8,67
		c9.5,0,19-0.1,28.5,0.1c2.7,0,3.8-0.6,3.7-3.5c-0.1-13.7-0.1-27.3,0-41c0-2.9-0.9-3.6-3.7-3.6c-19,0.1-38,0.1-57,0
		c-3,0-3.5,1.2-3.5,3.8c0.1,13.5,0.2,27,0,40.5c0,3.1,0.9,3.9,3.9,3.9C32.2,66.9,41.5,67,50.8,67z"/>
	<path fill="#FFFFFF" d="M46.9,33.2c-1.7,1.4-3.6,3.2-5.8,4.8c-3.6,2.7-4,5.2-0.1,8c1.2,0.9,2.1,2.1,3.2,3.1
		c1.9,1.7,3.1,2.9,0.6,5.5c-2.6,2.7-4,1.7-5.9-0.5c-3.7-4.2-11.4-7.9-10.7-12.1c0.8-4.8,7.5-8.7,11.6-13c0.8-0.9,1.7-2.5,3.2-0.9
		C44.4,29.3,46,30.3,46.9,33.2z"/>
	<path fill="#FFFFFF" d="M59,57.1c-1-1.3-2.2-2.7-3.2-4.2c-1.1-1.7,0.6-2.3,1.4-3.2c2.2-2.7,6.6-4.5,6.6-7.7c0-3.2-4.1-5.3-6.7-7.6
		c-2.4-2.2-1.3-3.4,0.4-5.1c1.7-1.7,2.8-2.3,4.8-0.2c3.5,3.8,7.2,7.3,10.9,11c0.9,0.9,2.2,1.8,0.7,3.3c-4.2,4.2-8.5,8.5-12.7,12.7
		C60.8,56.3,60.3,56.4,59,57.1z"/>
</g>
</svg>
