<svg id="Layer_1" data-name="Layer 1" xmlns="http://www.w3.org/2000/svg" viewBox="0 0 400.27 344.03"><defs><style>.cls-1{fill:#9e9e9e;}.cls-2{fill:#e0e0e0;}.cls-3{fill:#bdbdbd;}</style></defs><title>left entrance design</title><g id="_Group_" data-name="&lt;Group&gt;"><g id="_Group_2" data-name="&lt;Group&gt;"><rect id="_Rectangle_" data-name="&lt;Rectangle&gt;" class="cls-1" x="344.98" y="215.23" width="40.35" height="184.99" transform="translate(730.3 559.18) rotate(-180)"/><rect id="_Rectangle_2" data-name="&lt;Rectangle&gt;" class="cls-1" x="281.26" y="205.3" width="31.79" height="204.88" transform="matrix(-0.81, -0.58, 0.58, -0.81, 359.31, 674.72)"/><rect id="_Rectangle_3" data-name="&lt;Rectangle&gt;" class="cls-2" x="277.94" y="198.19" width="70.67" height="145.76"/><rect id="_Rectangle_4" data-name="&lt;Rectangle&gt;" class="cls-3" x="204.14" y="137.5" width="45.73" height="206.46"/><rect id="_Rectangle_5" data-name="&lt;Rectangle&gt;" class="cls-3" x="284.17" y="183.07" width="36.03" height="227.93" transform="translate(-116.48 175.46) rotate(-35.64)"/></g><polygon id="_Path_" data-name="&lt;Path&gt;" class="cls-3" points="377.88 315.42 400.27 343.95 356.01 344.03 377.88 315.42"/></g><polygon id="_Path_2" data-name="&lt;Path&gt;" class="cls-3" points="353.95 343.87 377.88 315.42 359.39 343.95 353.95 343.87"/><g id="_Group_3" data-name="&lt;Group&gt;"><polygon id="_Path_3" data-name="&lt;Path&gt;" class="cls-1" points="194.97 343.92 123.96 7.15 112.8 7.15 160.84 343.77 194.97 343.92"/><polygon id="_Path_4" data-name="&lt;Path&gt;" class="cls-3" points="122.94 343.84 40.27 0 27.28 0 83.2 343.65 122.94 343.84"/><polygon id="_Path_5" data-name="&lt;Path&gt;" class="cls-3" points="378.14 68.35 80.44 105.92 0 54.41 356.01 7.26 378.14 68.35"/><polygon id="_Path_6" data-name="&lt;Path&gt;" class="cls-1" points="378.14 68.35 80.44 105.92 10.16 61.97 347.8 17.29 378.14 68.35"/><polygon id="_Path_7" data-name="&lt;Path&gt;" class="cls-3" points="67.52 113.5 142.63 44.32 153.19 44.32 70.5 125.45 67.52 113.5"/><polygon id="_Path_8" data-name="&lt;Path&gt;" class="cls-1" points="146.04 137.14 221.16 67.91 231.72 67.91 149.03 149.06 146.04 137.14"/></g></svg>