<?xml version="1.0" encoding="utf-8"?>
<!-- Generator: Adobe Illustrator 21.0.0, SVG Export Plug-In . SVG Version: 6.00 Build 0)  -->
<svg version="1.1" id="Layer_1" xmlns="http://www.w3.org/2000/svg" xmlns:xlink="http://www.w3.org/1999/xlink" x="0px" y="0px"
	 viewBox="0 0 81.8 98.3" style="enable-background:new 0 0 81.8 98.3;" xml:space="preserve">
<style type="text/css">
	.st0{fill:#1A1826;}
	.st1{fill:url(#SVGID_1_);}
	.st2{fill:#090E1E;}
	.st3{fill:#121B38;}
	.st4{opacity:0.3;}
	.st5{opacity:0.5;fill:#F7931E;}
	.st6{opacity:0.6;fill:url(#SVGID_2_);}
	.st7{opacity:0.75;}
	.st8{fill:#EF7100;}
	.st9{fill:#FD9200;}
	.st10{fill:none;stroke:#FBB03B;stroke-width:1.5;stroke-miterlimit:10;}
	.st11{opacity:0.5;fill:none;stroke:#F7931E;stroke-miterlimit:10;}
	.st12{fill:none;stroke:url(#SVGID_3_);stroke-width:2;stroke-miterlimit:10;}
	.st13{fill:#353535;}
	.st14{fill:#1C1C1C;}
	.st15{opacity:0.5;}
	.st16{opacity:0.6;fill:#EF7100;}
	.st17{fill:none;stroke:url(#SVGID_4_);stroke-width:2;stroke-miterlimit:10;}
	.st18{opacity:0.1;fill:#FD9200;}
	.st19{fill:#111528;}
	.st20{fill:#393939;}
	.st21{fill:#6E6E6E;}
	.st22{fill:#FF5A0A;}
	.st23{fill:#F3843D;}
	.st24{opacity:5.000000e-02;fill:#EF7100;}
	.st25{fill:#E83D2E;}
	.st26{fill:#E73437;}
	.st27{fill:#A31E32;}
	.st28{fill:#DD1C3A;}
	.st29{fill:#F9F6F7;}
	.st30{fill:#A82431;}
	.st31{fill:none;stroke:url(#SVGID_5_);stroke-width:2;stroke-miterlimit:10;}
	.st32{opacity:0.6;fill:none;stroke:#E83D2E;stroke-miterlimit:10;}
	.st33{fill:none;stroke:#FF473E;stroke-miterlimit:10;}
	.st34{fill:none;stroke:url(#SVGID_6_);stroke-width:2;stroke-miterlimit:10;}
	.st35{fill:#EA3E2D;}
	.st36{fill:#DF193C;}
	.st37{fill:url(#SVGID_7_);stroke:#FFFFFF;stroke-miterlimit:10;}
	.st38{fill:url(#SVGID_8_);stroke:#FFFFFF;stroke-miterlimit:10;}
	.st39{fill:url(#SVGID_9_);stroke:#FFFFFF;stroke-miterlimit:10;}
	.st40{fill:#231F20;}
	.st41{fill:none;}
	.st42{fill:none;stroke:url(#SVGID_10_);stroke-width:2;stroke-miterlimit:10;}
	.st43{fill:url(#SVGID_11_);}
	.st44{opacity:0.2;}
	.st45{fill:url(#SVGID_12_);stroke:#FFFFFF;stroke-miterlimit:10;}
	.st46{fill:url(#SVGID_13_);stroke:#FFFFFF;stroke-miterlimit:10;}
	.st47{fill:url(#SVGID_14_);stroke:#FFFFFF;stroke-miterlimit:10;}
	.st48{opacity:0.5;fill:#EA3E2D;}
	.st49{fill:none;stroke:#FFFFFF;stroke-width:0.5;stroke-miterlimit:10;}
	.st50{fill:#F2F2F2;}
	.st51{opacity:0.3;stroke:#FFFFFF;stroke-width:0.5;stroke-miterlimit:10;}
	.st52{opacity:0.6;fill:none;stroke:#FFFFFF;stroke-width:0.75;stroke-miterlimit:10;}
	.st53{fill:url(#SVGID_15_);stroke:#FFFFFF;stroke-miterlimit:10;}
	.st54{fill:#FFFFFF;}
	.st55{opacity:0.8;fill:none;stroke:#E83D2E;stroke-width:5;stroke-miterlimit:10;}
	.st56{opacity:0.8;fill:none;stroke:#E83D2E;stroke-width:2;stroke-miterlimit:10;}
	.st57{fill:url(#SVGID_16_);stroke:#FFFFFF;stroke-miterlimit:10;}
	.st58{fill:url(#SVGID_17_);stroke:#FFFFFF;stroke-miterlimit:10;}
	.st59{fill:url(#SVGID_18_);stroke:#FFFFFF;stroke-miterlimit:10;}
	.st60{fill:url(#SVGID_19_);stroke:#FFFFFF;stroke-miterlimit:10;}
	.st61{fill:url(#SVGID_20_);stroke:#FFFFFF;stroke-miterlimit:10;}
	.st62{fill:url(#SVGID_21_);stroke:#FFFFFF;stroke-miterlimit:10;}
	.st63{opacity:0.7;fill:none;stroke:url(#SVGID_22_);stroke-miterlimit:10;}
	.st64{fill:none;stroke:#000000;stroke-miterlimit:10;}
	.st65{opacity:0.3;stroke:#FFFFFF;stroke-miterlimit:10;}
	.st66{opacity:0.6;fill:none;stroke:#FFFFFF;stroke-miterlimit:10;}
	.st67{fill:none;stroke:url(#SVGID_23_);stroke-width:2;stroke-miterlimit:10;}
	.st68{fill:url(#SVGID_24_);stroke:#FFFFFF;stroke-miterlimit:10;}
	.st69{fill:url(#SVGID_25_);stroke:#FFFFFF;stroke-miterlimit:10;}
	.st70{fill:url(#SVGID_26_);stroke:#FFFFFF;stroke-miterlimit:10;}
	.st71{fill:url(#SVGID_27_);stroke:#FFFFFF;stroke-miterlimit:10;}
	.st72{fill:url(#SVGID_28_);stroke:#FFFFFF;stroke-miterlimit:10;}
	.st73{fill:url(#SVGID_29_);stroke:#FFFFFF;stroke-miterlimit:10;}
	.st74{fill:url(#SVGID_30_);stroke:#FFFFFF;stroke-miterlimit:10;}
	.st75{fill:url(#SVGID_31_);stroke:#FFFFFF;stroke-miterlimit:10;}
	.st76{fill:url(#SVGID_32_);stroke:#FFFFFF;stroke-miterlimit:10;}
	.st77{opacity:0.8;fill:none;stroke:#F2F2F2;stroke-width:2;stroke-miterlimit:10;}
	.st78{opacity:0.5;fill:#FFFFFF;}
	.st79{fill:url(#SVGID_47_);stroke:#FFFFFF;stroke-miterlimit:10;}
	.st80{stroke:#FFFFFF;stroke-width:0.75;stroke-miterlimit:10;}
	.st81{opacity:0.7;fill:#5D8632;}
	.st82{fill:url(#SVGID_48_);}
	.st83{fill:url(#SVGID_49_);}
	.st84{fill:url(#SVGID_50_);}
	.st85{fill:#CCCBCB;}
	.st86{fill:#B3B2B3;}
	.st87{fill:none;stroke:#616262;stroke-width:1.2039;stroke-miterlimit:10;}
	.st88{fill:none;stroke:#4D4D4D;stroke-width:2;stroke-linecap:round;stroke-miterlimit:10;}
	.st89{opacity:0.3;fill:none;stroke:#F2F2F2;stroke-width:0.75;stroke-miterlimit:10;}
	.st90{opacity:0.7;fill:#B3B3B3;}
	.st91{opacity:0.7;fill:#CCCCCC;}
	.st92{stroke:#FFFFFF;stroke-width:0.5;stroke-miterlimit:10;}
	.st93{opacity:0.4;}
	.st94{opacity:0.7;}
	.st95{fill:url(#SVGID_51_);}
	.st96{fill:#5D8632;}
	.st97{fill:#B3B3B3;}
	.st98{fill:#CCCCCC;}
	.st99{fill:none;stroke:#FFFFFF;stroke-width:1.5135;stroke-miterlimit:10;}
</style>
<g>
	<g>
		<path class="st92" d="M74.6,0.3h-54c-3.8,0-7,3.1-7,7v4.5H7.2c-3.8,0-7,3.1-7,7v72.4c0,3.8,3.1,7,7,7h54c3.8,0,7-3.1,7-7v-4.5h6.4
			c3.8,0,7-3.1,7-7V7.2C81.6,3.4,78.4,0.3,74.6,0.3L74.6,0.3z M62.7,91.1c0,0.8-0.6,1.4-1.4,1.4h-54c-0.8,0-1.4-0.6-1.4-1.4V18.7
			c0-0.8,0.6-1.4,1.4-1.4h6.4v62.4c0,3.8,3.1,7,7,7h42.1V91.1z M76,79.7c0,0.8-0.6,1.4-1.4,1.4h-54c-0.8,0-1.4-0.6-1.4-1.4V7.2
			c0-0.8,0.6-1.4,1.4-1.4h54c0.8,0,1.4,0.6,1.4,1.4V79.7z M76,79.7"/>
	</g>
	<path class="st92" d="M68,17.6H27.1c-1.5,0-2.8,1.3-2.8,2.8c0,1.5,1.3,2.8,2.8,2.8H68c1.5,0,2.8-1.2,2.8-2.8
		C70.8,18.8,69.6,17.6,68,17.6L68,17.6z M68,17.6"/>
	<path class="st92" d="M68,30.9H27.1c-1.5,0-2.8,1.3-2.8,2.8c0,1.5,1.3,2.8,2.8,2.8H68c1.5,0,2.8-1.2,2.8-2.8
		C70.8,32.1,69.6,30.9,68,30.9L68,30.9z M68,30.9"/>
	<path class="st92" d="M68,44.2H27.1c-1.5,0-2.8,1.3-2.8,2.8c0,1.5,1.3,2.8,2.8,2.8H68c1.5,0,2.8-1.2,2.8-2.8
		C70.8,45.4,69.6,44.2,68,44.2L68,44.2z M68,44.2"/>
	<path class="st92" d="M68,57.4H27.1c-1.5,0-2.8,1.3-2.8,2.8c0,1.5,1.3,2.8,2.8,2.8H68c1.5,0,2.8-1.2,2.8-2.8
		C70.8,58.7,69.6,57.4,68,57.4L68,57.4z M68,57.4"/>
</g>
</svg>
