<svg id="Layer_1" data-name="Layer 1" xmlns="http://www.w3.org/2000/svg" viewBox="0 0 400.27 344.03"><defs><style>.cls-1{fill:#9e9e9e;}.cls-2{fill:#e0e0e0;}.cls-3{fill:#bdbdbd;}</style></defs><title>right entrance design</title><g id="_Group_" data-name="&lt;Group&gt;"><g id="_Group_2" data-name="&lt;Group&gt;"><rect id="_Rectangle_" data-name="&lt;Rectangle&gt;" class="cls-1" x="14.94" y="158.96" width="40.35" height="184.99"/><rect id="_Rectangle_2" data-name="&lt;Rectangle&gt;" class="cls-1" x="87.22" y="205.3" width="31.79" height="204.88" transform="translate(-160.01 61.47) rotate(-35.64)"/><rect id="_Rectangle_3" data-name="&lt;Rectangle&gt;" class="cls-2" x="51.66" y="254.46" width="70.67" height="145.76" transform="translate(173.99 598.41) rotate(-180)"/><rect id="_Rectangle_4" data-name="&lt;Rectangle&gt;" class="cls-3" x="150.41" y="193.77" width="45.73" height="206.46" transform="translate(346.54 537.72) rotate(-180)"/><rect id="_Rectangle_5" data-name="&lt;Rectangle&gt;" class="cls-3" x="80.08" y="183.07" width="36.03" height="227.93" transform="translate(4.71 539.31) rotate(-144.36)"/></g><polygon id="_Path_" data-name="&lt;Path&gt;" class="cls-3" points="22.39 315.42 0 343.95 44.26 344.03 22.39 315.42"/></g><polygon id="_Path_2" data-name="&lt;Path&gt;" class="cls-3" points="46.32 343.87 22.39 315.42 40.88 343.95 46.32 343.87"/><g id="_Group_3" data-name="&lt;Group&gt;"><polygon id="_Path_3" data-name="&lt;Path&gt;" class="cls-1" points="205.3 343.92 276.31 7.15 287.48 7.15 239.43 343.77 205.3 343.92"/><polygon id="_Path_4" data-name="&lt;Path&gt;" class="cls-3" points="277.33 343.84 360 0 372.99 0 317.07 343.65 277.33 343.84"/><polygon id="_Path_5" data-name="&lt;Path&gt;" class="cls-3" points="22.13 68.35 319.83 105.92 400.27 54.41 44.26 7.26 22.13 68.35"/><polygon id="_Path_6" data-name="&lt;Path&gt;" class="cls-1" points="22.13 68.35 319.83 105.92 390.11 61.97 52.47 17.29 22.13 68.35"/><polygon id="_Path_7" data-name="&lt;Path&gt;" class="cls-3" points="332.75 113.5 257.64 44.32 247.08 44.32 329.77 125.45 332.75 113.5"/><polygon id="_Path_8" data-name="&lt;Path&gt;" class="cls-1" points="254.23 137.14 179.11 67.91 168.55 67.91 251.24 149.06 254.23 137.14"/></g></svg>