<svg id="Layer_1" data-name="Layer 1" xmlns="http://www.w3.org/2000/svg" viewBox="0 0 1319.02 326.81"><defs><style>.cls-1{fill:#515f86;}.cls-2{fill:#cbcbcb;}.cls-3{fill:#fcf615;}.cls-4{fill:#5baa00;}.cls-5{font-size:100px;fill:#e7d768;font-family:AGaramondPro-Bold, Adobe Garamond Pro;font-weight:700;}.cls-6{font-size:76px;}</style></defs><title>ssn stone</title><ellipse class="cls-1" cx="659.51" cy="234.07" rx="659.51" ry="92.74"/><ellipse class="cls-2" cx="656.57" cy="225.23" rx="630.07" ry="86.86"/><path class="cls-3" d="M-231.45,258.71s-8.83,2.94-26.5,20.61V311.7s47.11,79.49,538.8,70.66,527-70.66,527-70.66L802,267.54s-22.08-17.17-38.81-19.06C721.84,243.81,724,247-231.45,258.71Z" transform="translate(386.02 -101.19)"/><path d="M193.65,310.41c-8,.61-17.75-1.44-23.64,2.42-10.74,7-21.35,3.53-32,4.22-6.91.45-11.73,2.11-12.39,10.45-1.39,17.44-3.5,34.81-5.49,53.9L48.31,377c-.39-18.09-3.36-35.52,6.32-51.18,2.14-3.47,7.35-6.54,11.47-7,15.39-1.83,30.92-2.57,46.41-3.6,8.8-.59,17.61-.94,27.19-1.44-3.93-14.41-18.06-6.83-26.47-15.63,15.93,1.23,29.88,1.52,43.52,3.7,7,1.12,12.59,2.48,17.71-4,1.35-1.7,5.24-1.38,10.93-2.64l-10.37,9c19.72.89,32.55-7,46-16.14l-9.72,11.46L230.73,303l-.1-.09c4.69,5.75-.31,8.86-3.87,11.26-2.56,1.72-5.88,2.33-5.44-3.95.21-2.92-23.74-2.81-28,.44Z" transform="translate(386.02 -101.19)"/><path d="M289.26,327.9l2.49,53c-29.59,0-59,2.94-90.29,2.94-.17-18.19-3.23-39.79-1.93-57.89C207.24,326.42,306.17,326.79,289.26,327.9Z" transform="translate(386.02 -101.19)"/><path d="M435.72,310.85l7.45,67.31c-27.42,2-52.57.9-79,2.83,0-11.82.37-18.71-.1-28.51a271.06,271.06,0,0,0-3-30.64c-.56-3.46-4-6.44-5-7.78h70.38l.17-3.57H386l-.58-4.9c5.13-1.45,10.22-4,15.4-4.13,12.67-.42,25.39.46,38.08.28,2.61,0,6.85-1.85,7.53-3.81,5.47-15.81,16.38-5.5,25.28-4.81l-19.35,1.67,0,4.15,18.58,1.71,11.83-10.14,2.4,2.74-4.64,5.31c.49.66.84,1.61,1.3,1.66,6.91.81,13.83,2,20.76,2.11,12.64.2,25.29-.63,37.92-.34,11.64.26,24.84-1.67,34.39,3.19,7.17,3.66,10.88,16.15,13.82,25.44,2.36,7.47,2.87,30.13,5.5,35.85-7.53,2.78-57.13,3.55-75.47,4.4,0-13.23,0-22.37,0-34.46a68.85,68.85,0,0,0-.27-7.72c-2-17.78-6.31-21.8-24-21.1C474.29,308.42,454.16,309.81,435.72,310.85Z" transform="translate(386.02 -101.19)"/><path d="M706.3,348.27c-16.76,2.3-27.91,5.05-48.25,7.85-.66-12.15.12-20.78-2.27-31.66-2.36-10.72-7.93-20.74-11.44-29.46,10.48-1.56,22.59-4,34.8-4.82,4.19-.27,9.6,2.76,12.82,5.94,8.85,8.74,13.11,19.53,13.92,32.36C707.06,347.51,703.35,345.56,706.3,348.27Z" transform="translate(386.02 -101.19)"/><path d="M-58.53,307.29S-79.82,325-79.82,336.73v29.44l58.72,7.71.17-37.15,11.78-26.5Z" transform="translate(386.02 -101.19)"/><polygon points="232.6 197.26 211.99 220.82 213.28 248.44 255.5 257.88 256.15 223.76 267.93 203.15 232.6 197.26"/><polygon points="163.14 231.55 163.41 207.57 189.36 179.07 195.79 186.96 184.01 213.46 183.04 239.33 163.14 231.55"/><polygon points="138.38 214.93 138.38 188.43 164.45 169.27 164.88 179.6 150.16 191.38 147.14 223.43 138.38 214.93"/><polygon points="1112.35 190.74 1121.76 209.04 1121.76 241.43 1142.37 235.54 1142.37 203.15 1127.08 186.82 1112.35 190.74"/><polygon points="1151.2 176.66 1162.98 191.38 1162.98 228.27 1180.64 220.82 1180.64 188.43 1160.03 170.77 1151.2 176.66"/><ellipse class="cls-4" cx="659.51" cy="168.56" rx="501.99" ry="58.15"/><polygon points="226.71 0 1089.37 0 1098.2 150.16 220.22 154.81 226.71 0"/><text class="cls-5" transform="translate(289.34 107.2) scale(1 1.15)">SSN <tspan class="cls-6" x="200" y="0">INSTITUTIONS</tspan></text></svg>