<svg id="Layer_1" data-name="Layer 1" xmlns="http://www.w3.org/2000/svg" xmlns:xlink="http://www.w3.org/1999/xlink" viewBox="0 0 400 213.89"><defs><style>.cls-1{fill:#fff;}.cls-2{fill:url(#linear-gradient);}.cls-3{fill:#5baa00;}.cls-4{fill:#fcf615;}.cls-5{fill:#f9ef41;}</style><linearGradient id="linear-gradient" x1="89.22" y1="84.52" x2="392.06" y2="84.52" gradientUnits="userSpaceOnUse"><stop offset="0" stop-color="#fff"/><stop offset="1" stop-color="#ccc"/></linearGradient></defs><title>wall right</title><polygon class="cls-1" points="396.03 165.08 84.92 111.11 84.92 61.91 396.03 0 396.03 165.08"/><polygon class="cls-2" points="392.06 153.18 89.22 106.6 89.22 70.54 392.06 15.87 392.06 153.18"/><polygon class="cls-3" points="300.79 188.89 2.38 128.57 84.92 111.11 396.03 165.08 300.79 188.89"/><polygon class="cls-4" points="300.6 194.84 0 134.52 0 148.81 300.6 213.89 400 190.08 400 170.44 300.6 194.84"/><polygon class="cls-5" points="2.38 128.57 0 134.52 300.6 194.84 400 170.44 396.03 165.08 300.79 188.89 2.38 128.57"/><polygon points="34.01 134.85 33.99 134.89 24.67 133.01 21.91 138.86 21.91 153.55 41.46 157.78 41.58 142.78 44.43 136.96 34.01 134.85"/><polygon points="69.52 142.12 66.77 147.98 66.62 163.23 86.17 167.46 86.29 152.04 89.22 146.15 69.52 142.12"/><polygon points="123.96 153.04 123.94 153.08 114.62 151.2 111.86 157.05 111.86 173.03 131.4 177.26 131.53 160.97 134.38 155.15 123.96 153.04"/><polygon points="158.79 160.26 155.77 166.38 155.77 182.53 175.31 186.76 175.44 170.29 178.53 164.24 158.79 160.26"/><polygon points="212.1 170.83 212.08 170.87 202.76 168.99 200 174.84 200 192.04 219.54 196.34 219.67 178.76 222.52 172.94 212.1 170.83"/><polygon points="248.56 178.33 244.71 183.63 244.71 201.79 264.25 206.02 264.38 187.69 267.48 182.22 248.56 178.33"/><polygon points="393.37 165.58 396.03 171.23 395.73 190.89 376.27 195.31 376.77 175.96 374.05 170.41 393.37 165.58"/><polygon points="354.07 175.39 356.73 181.04 356.44 200.26 336.97 205.12 337.47 185.77 334.75 180.22 354.07 175.39"/><polygon points="300.79 188.89 309.85 186.63 313.54 191.66 313.54 210.79 300.6 213.89 286.47 210.83 286.47 192.01 289.9 186.69 300.79 188.89"/></svg>