<svg id="Layer_1" data-name="Layer 1" xmlns="http://www.w3.org/2000/svg" xmlns:xlink="http://www.w3.org/1999/xlink" viewBox="0 0 400 213.89"><defs><style>.cls-1{fill:#fff;}.cls-2{fill:url(#linear-gradient);}.cls-3{fill:#5baa00;}.cls-4{fill:#fcf615;}.cls-5{fill:#f9ef41;}</style><linearGradient id="linear-gradient" x1="89.22" y1="191.52" x2="392.06" y2="191.52" gradientTransform="matrix(-1, 0, 0, 1, 400, -107)" gradientUnits="userSpaceOnUse"><stop offset="0" stop-color="#fff"/><stop offset="1" stop-color="#ccc"/></linearGradient></defs><title>wall left</title><polygon class="cls-1" points="3.97 165.08 315.08 111.11 315.08 61.91 3.97 0 3.97 165.08"/><polygon class="cls-2" points="7.94 153.18 310.78 106.6 310.78 70.54 7.94 15.87 7.94 153.18"/><polygon class="cls-3" points="99.21 188.89 397.62 128.57 315.08 111.11 3.97 165.08 99.21 188.89"/><polygon class="cls-4" points="99.41 194.84 400 134.52 400 148.81 99.41 213.89 0 190.08 0 170.44 99.41 194.84"/><polygon class="cls-5" points="397.62 128.57 400 134.52 99.41 194.84 0 170.44 3.97 165.08 99.21 188.89 397.62 128.57"/><polygon points="365.99 134.85 366.01 134.89 375.33 133.01 378.09 138.86 378.09 153.55 358.54 157.78 358.42 142.78 355.57 136.96 365.99 134.85"/><polygon points="330.48 142.12 333.23 147.98 333.38 163.23 313.83 167.46 313.71 152.04 310.78 146.15 330.48 142.12"/><polygon points="276.04 153.04 276.06 153.08 285.38 151.2 288.14 157.05 288.14 173.03 268.6 177.26 268.48 160.97 265.62 155.15 276.04 153.04"/><polygon points="241.21 160.26 244.23 166.38 244.23 182.53 224.69 186.76 224.56 170.29 221.47 164.24 241.21 160.26"/><polygon points="187.9 170.83 187.92 170.87 197.24 168.99 200 174.84 200 192.04 180.46 196.34 180.33 178.76 177.48 172.94 187.9 170.83"/><polygon points="151.44 178.33 155.29 183.63 155.29 201.79 135.75 206.02 135.62 187.69 132.53 182.22 151.44 178.33"/><polygon points="6.63 165.58 3.97 171.23 4.27 190.89 23.73 195.31 23.23 175.96 25.95 170.41 6.63 165.58"/><polygon points="45.93 175.39 43.27 181.04 43.56 200.26 63.03 205.12 62.53 185.77 65.25 180.22 45.93 175.39"/><polygon points="99.21 188.89 90.15 186.63 86.46 191.66 86.46 210.79 99.41 213.89 113.53 210.83 113.53 192.01 110.09 186.69 99.21 188.89"/></svg>